<?xml version="1.0" encoding="UTF-8"?>
<svg width="810px" height="190px" viewBox="0 0 810 190" version="1.1" xmlns="http://www.w3.org/2000/svg" xmlns:xlink="http://www.w3.org/1999/xlink">
    <title>A+/Alipay+@1x</title>
    <g id="A+/Alipay+" stroke="none" stroke-width="1" fill="none" fill-rule="evenodd">
        <g id="Group-13" transform="translate(-0.000200, -0.000400)">
            <path d="M406.789,121.3777 C406.789,118.2867 407.407,115.1957 409.88,112.7227 C413.795,108.8077 421.42,105.9217 438.936,101.8007 L438.936,128.1777 C430.281,132.9177 425.335,134.7727 419.565,134.7727 C411.735,134.7727 406.789,129.6207 406.789,121.3777 L406.789,121.3777 Z M310.759,67.5927 C322.917,67.5927 332.603,77.2777 332.603,97.8857 C332.603,124.2627 318.383,136.0087 302.516,136.0087 C298.806,136.0087 295.303,135.5967 291.388,134.3597 L291.388,74.5987 C298.188,69.8587 303.752,67.5927 310.759,67.5927 L310.759,67.5927 Z M587.515,44.7177 L587.721,44.5127 L557.016,44.5127 L537.645,111.6917 L536.615,111.6917 L514.359,44.5127 L477.884,44.5127 L521.778,155.3797 L503.437,189.1757 L503.437,190.0007 L532.081,190.0007 L587.515,44.7177 Z M204.425,154.9677 L236.985,154.9677 L236.985,44.5127 L204.425,44.5127 L204.425,154.9677 Z M442.852,154.9677 L475.411,154.9677 L471.496,127.3537 L471.496,81.1927 C471.496,56.0517 456.658,42.2457 430.487,42.2457 C413.795,42.2457 402.255,45.1297 381.236,51.5187 L387.006,76.8657 C406.17,68.2107 414.62,64.5017 423.481,64.5017 C434.197,64.5017 438.936,72.1267 438.936,83.8727 L438.936,84.6967 C401.637,91.7027 390.097,95.6187 382.884,102.8317 C377.526,108.1897 375.26,115.8137 375.26,124.6747 C375.26,145.9007 391.745,157.2347 407.201,157.2347 C418.741,157.2347 428.014,152.9067 440.585,143.4277 L442.852,154.9677 Z M310.347,156.4107 C339.403,156.4107 365.574,134.9787 365.574,96.8557 C365.574,62.6467 346.615,42.2457 323.123,42.2457 C311.171,42.2457 301.897,46.7787 291.388,55.4347 L291.388,44.5127 L258.828,44.5127 L258.828,190.0007 L291.388,190.0007 L291.388,153.9377 C297.57,155.5857 303.34,156.4107 310.347,156.4107 L310.347,156.4107 Z M45.13,102.8317 L64.501,35.8567 L65.326,35.8567 L83.666,102.8317 L45.13,102.8317 Z M0,154.9677 L30.087,154.9677 L38.33,126.5297 L90.054,126.5297 L97.885,154.9677 L136.421,154.9677 L92.527,9.6857 L48.84,9.6857 L0,154.9677 Z M149.61,154.9677 L182.169,154.9677 L182.169,4.5337 L149.61,4.5337 L149.61,154.9677 Z" id="Fill-1" fill="#3E3A3A"></path>
            <path d="M201.952,17.929 C201.952,28.644 209.783,35.857 220.704,35.857 C231.627,35.857 239.457,28.644 239.457,17.929 C239.457,7.419 231.627,0 220.704,0 C209.783,0 201.952,7.419 201.952,17.929" id="Fill-4" fill="#1677FF"></path>
            <path d="M792.2152,78.4749 L736.0752,78.4749 L736.0752,22.3339 C736.0752,12.5119 728.1122,4.5499 718.2902,4.5499 L699.2302,4.5499 L699.2302,78.4749 C699.2302,98.8239 715.7262,115.3199 736.0752,115.3199 L810.0002,115.3199 L810.0002,96.2599 C810.0002,86.4379 802.0372,78.4749 792.2152,78.4749" id="Fill-7" fill="#1677FF"></path>
            <path d="M625.3051,97.5345 C625.3051,107.3575 633.2681,115.3205 643.0901,115.3205 L681.3151,115.3205 L681.3151,78.4745 L625.3051,78.4745 L625.3051,97.5345 Z" id="Fill-9" fill="#00B6FF"></path>
            <path d="M699.2301,133.3958 L699.2301,171.4598 C699.2301,181.2828 707.1931,189.2458 717.0151,189.2458 L736.0751,189.2458 L736.0751,133.3958 L699.2301,133.3958 Z" id="Fill-11" fill="#00B6FF"></path>
        </g>
    </g>
</svg>